<svg height="496pt" viewBox="0 0 496 496.704" width="496pt" xmlns="http://www.w3.org/2000/svg"><path d="m344.351562 456h-336v-368l80-80h256zm0 0" fill="#e6e9ed"/><path d="m96.351562 104v-96h-8l-80 80v16zm0 0" fill="#aab2bd"/><path d="m40.351562 88v48h272v-96h-224zm0 0" fill="#ff826e"/><path d="m88.351562 8v80h-80zm0 0" fill="#fcd770"/><path d="m424.351562 216h-96c0 35.34375-28.65625 64-64 64v38.152344c0 73.917968 44.054688 140.726562 112 169.847656 67.945313-29.121094 112-95.929688 112-169.847656v-38.152344c-35.34375 0-64-28.65625-64-64zm0 0" fill="#a0d468"/><path d="m424.351562 368c0 26.507812-21.488281 48-48 48-26.507812 0-48-21.492188-48-48s21.492188-48 48-48c26.511719 0 48 21.492188 48 48zm0 0" fill="#fcd770"/><path d="m40.351562 296h192v128h-192zm0 0" fill="#fcd770"/><path d="m40.351562 88h56v16h-56zm0 0" fill="#fc6e51"/><path d="m488.351562 272c-30.871093 0-56-25.128906-56-56v-8h-80v-208h-267.3125l-84.6875 84.6875v379.3125h322.777344c14.75 12.726562 31.527344 23.40625 50.070313 31.351562l3.152343 1.351563 3.152344-1.351563c70.984375-30.414062 116.847656-99.976562 116.847656-177.199218v-46.152344zm-460.6875-192 52.6875-52.6875v52.6875zm20.6875 16h48v-48h208v80h-256zm-32 0h16v48h288v-112h-224v-16h240v192h-16v8c0 30.871094-25.128906 56-56 56h-8v46.152344c0 49.09375 18.59375 95.039062 50.328126 129.847656h-290.328126zm464 222.152344c0 69.671875-40.703124 132.527344-104 161.113281-63.296874-28.578125-104-91.441406-104-161.113281v-30.59375c33.320313-3.695313 59.855469-30.230469 63.550782-63.550782h80.890625c3.695312 33.320313 30.230469 59.855469 63.550781 63.550782v30.59375zm0 0"/><path d="m410.792969 323.9375 20.910156-48.792969-14.703125-6.296875-20.175781 47.082032c-6.351563-2.503907-13.238281-3.929688-20.472657-3.929688-30.871093 0-56 25.128906-56 56s25.128907 56 56 56c30.871094 0 56-25.128906 56-56 0-17.886719-8.464843-33.800781-21.558593-44.0625zm-34.441407 84.0625c-22.054687 0-40-17.945312-40-40s17.945313-40 40-40c4.992188 0 9.726563 1.03125 14.136719 2.710938l-17.703125 41.296874-16-10.664062-8.875 13.3125 32 21.335938 24.265625-56.625c7.488281 7.273437 12.175781 17.402343 12.175781 28.632812 0 22.054688-17.945312 40-40 40zm0 0"/><path d="m32.351562 432h208v-144h-208zm16-128h176v112h-176zm0 0"/><path d="m64.351562 160h176v16h-176zm0 0"/><path d="m32.351562 160h16v16h-16zm0 0"/><path d="m32.351562 192h208v16h-208zm0 0"/><path d="m32.351562 224h208v16h-208zm0 0"/><path d="m32.351562 256h208v16h-208zm0 0"/></svg>