<svg height="496pt" viewBox="0 -59 496 495" width="496pt" xmlns="http://www.w3.org/2000/svg" xmlns:xlink="http://www.w3.org/1999/xlink"><linearGradient id="a" gradientUnits="userSpaceOnUse" x1="248" x2="248" y1="376.5" y2=".5"><stop offset="0" stop-color="#9f2fff"/><stop offset="1" stop-color="#0bb1d3"/></linearGradient><path d="m160 280.5c-17.648438 0-32 14.351562-32 32s14.351562 32 32 32 32-14.351562 32-32-14.351562-32-32-32zm0 48c-8.824219 0-16-7.175781-16-16s7.175781-16 16-16 16 7.175781 16 16-7.175781 16-16 16zm192-48c-17.648438 0-32 14.351562-32 32s14.351562 32 32 32 32-14.351562 32-32-14.351562-32-32-32zm0 48c-8.824219 0-16-7.175781-16-16s7.175781-16 16-16 16 7.175781 16 16-7.175781 16-16 16zm128-126.527344v-64.152344c0-7.625-2.167969-15.054687-6.257812-21.480468l-46.285157-72.734375c-4.433593-6.960938-12-11.113281-20.242187-11.113281h-55.214844v-31.992188h-262.246094l-12 48h24.734375l-2.785156 16h-67.703125v16h64.921875l-5.570313 32h-59.351562v16h56.574219l-5.566407 32h-51.007812v16h48.222656l-6.957031 40h-16.328125l-8 64h-.9375c-8.824219 0-16 7.175781-16 16v32c0 8.824219 7.175781 16 16 16h56.65625c11.085938 19.097656 31.710938 32 55.34375 32s44.257812-12.902344 55.34375-32h81.320312c11.089844 19.097656 31.710938 32 55.34375 32 23.632813 0 44.257813-12.902344 55.34375-32h63.128907l25.351562-118.320312.167969-1.679688c0-10.414062-6.710938-19.214844-16-22.527344zm-72.785156-153.472656c2.746094 0 5.273437 1.382812 6.746094 3.703125l46.285156 72.738281c2.457031 3.847656 3.753906 8.300782 3.753906 12.878906v62.679688h-30.558594l-3.203125 16h-126.238281v-160c0-4.414062 3.59375-8 8-8zm-304.96875-32h233.753906v16h-237.753906zm16.480468 32h170.746094c-.898437 2.511719-1.472656 5.183594-1.472656 8v160h-198.488281zm-47.664062 184h355.976562l-9.597656 48h-10.105468c-11.089844-19.097656-31.710938-32-55.34375-32-23.632813 0-44.257813 12.902344-55.34375 32h-81.304688c-11.085938-19.097656-31.710938-32-55.34375-32s-44.257812 12.902344-55.34375 32h-39.601562zm-23.0625 96v-32h50.105469c-1.328125 5.128906-2.105469 10.464844-2.105469 16s.777344 10.871094 2.105469 16zm112 32c-26.472656 0-48-21.527344-48-48s21.527344-48 48-48 48 21.527344 48 48-21.527344 48-48 48zm61.894531-32c1.328125-5.128906 2.105469-10.464844 2.105469-16s-.777344-10.871094-2.105469-16h68.21875c-1.335937 5.128906-2.113281 10.464844-2.113281 16s.777344 10.871094 2.105469 16zm130.105469 32c-26.472656 0-48-21.527344-48-48s21.527344-48 48-48 48 21.527344 48 48-21.527344 48-48 48zm105.527344-32h-43.640625c1.335937-5.128906 2.113281-10.464844 2.113281-16s-.777344-10.871094-2.105469-16h16.664063l16-80h25.441406c4.175781 0 7.617188 3.207031 7.96875 7.296875zm-9.527344-194.296875-43.566406-69.703125h-84.433594v104h128zm-16 18.296875h-96v-72h59.566406l36.433594 58.296875zm-64 48h-48v-16h48zm-368-136h16v16h-16zm0 48h16v16h-16zm0 48h16v16h-16zm0 0" fill="url(#a)"/></svg>