<svg height="496pt" viewBox="0 0 496 496" width="496pt" xmlns="http://www.w3.org/2000/svg" xmlns:xlink="http://www.w3.org/1999/xlink"><linearGradient id="a" gradientUnits="userSpaceOnUse" x1="248" x2="248" y1="496" y2="0"><stop offset="0" stop-color="#9f2fff"/><stop offset="1" stop-color="#0bb1d3"/></linearGradient><path d="m472 248c-7.511719 0-14.695312 3.585938-19.191406 9.601562l-41.167969 54.878907-44.144531 5.519531 3.433594-4.585938c3.269531-4.351562 5.070312-9.757812 5.070312-15.199218v-.871094c0-13.976562-11.367188-25.34375-25.34375-25.34375-6.28125 0-12.304688 2.3125-16.953125 6.503906l-59.167969 53.25c-11.773437 10.597656-18.535156 25.765625-18.535156 41.621094v42.625h-16v-42.625c0-15.847656-6.761719-31.023438-18.535156-41.613281l-59.160156-53.242188c-4.65625-4.207031-10.679688-6.519531-16.960938-6.519531-13.976562 0-25.34375 11.367188-25.34375 25.34375v.871094c0 5.449218 1.800781 10.847656 5.070312 15.199218l3.433594 4.585938-44.144531-5.519531-41.167969-54.878907c-4.496094-6.015624-11.679687-9.601562-19.191406-9.601562-13.230469 0-24 10.769531-24 24v3.160156c0 4.75 1.390625 9.359375 4.03125 13.3125l47.066406 70.589844c10.40625 15.617188 27.832032 24.9375 46.589844 24.9375h27.71875c17.242188 0 32.496094 10.992188 37.945312 27.351562l1.550782 4.648438h-12.902344v80h192v-80h-12.902344l1.550782-4.648438c5.457031-16.359374 20.703124-27.351562 37.945312-27.351562h27.71875c18.757812 0 36.175781-9.320312 46.589844-24.9375l47.066406-70.589844c2.640625-3.953125 4.03125-8.5625 4.03125-13.3125v-3.160156c0-13.230469-10.769531-24-24-24zm-293.480469 158.289062c-7.625-22.898437-28.976562-38.289062-53.113281-38.289062h-27.71875c-13.398438 0-25.839844-6.65625-33.28125-17.816406l-47.0625-70.589844c-.878906-1.320312-1.34375-2.851562-1.34375-4.433594v-3.160156c0-4.414062 3.585938-8 8-8 2.503906 0 4.894531 1.191406 6.398438 3.191406l45.242187 60.320313 66.207031 8.28125 3.753906 5.007812 12.796876-9.59375-20.527344-27.375c-1.207032-1.617187-1.871094-3.609375-1.871094-5.617187v-.871094c0-5.152344 4.191406-9.34375 9.34375-9.34375 2.3125 0 4.527344.847656 6.25 2.398438l59.167969 53.25c8.40625 7.566406 13.238281 18.40625 13.238281 29.726562v42.625h-42.238281zm-10.519531 73.710938v-16h40v-16h-40v-16h72v16h-16v16h16v16zm88 0v-16h16v-16h-16v-16h72v16h-40v16h40v16zm224-204.839844c0 1.582032-.464844 3.121094-1.34375 4.441406l-47.0625 70.589844c-7.433594 11.152344-19.882812 17.808594-33.28125 17.808594h-27.71875c-24.144531 0-45.496094 15.390625-53.121094 38.289062l-3.234375 9.710938h-42.238281v-42.625c0-11.320312 4.832031-22.160156 13.238281-29.726562l59.167969-53.257813c1.722656-1.542969 3.9375-2.390625 6.25-2.390625 5.152344 0 9.34375 4.191406 9.34375 9.34375v.871094c0 2.007812-.664062 4-1.863281 5.609375l-20.535157 27.375 12.796876 9.59375 3.753906-5.007813 66.207031-8.28125 45.242187-60.320312c1.503907-1.992188 3.894532-3.183594 6.398438-3.183594 4.414062 0 8 3.585938 8 8zm-430.046875-98.441406c-15.519531 5.824219-25.953125 20.882812-25.953125 37.457031v25.824219h448v-25.824219c0-16.574219-10.433594-31.632812-25.953125-37.464843l-38.046875-14.253907v-6.777343c6.054688-5.433594 10.71875-12.359376 13.398438-20.222657 15.074218-2.585937 26.601562-15.65625 26.601562-31.457031v-32c0-39.703125-32.296875-72-72-72-27.472656 0-51.382812 15.480469-63.511719 38.160156-11.464843-22.601562-34.863281-38.160156-61.894531-38.160156-13.753906 0-27.074219 4.03125-38.496094 11.65625l-7.691406 5.128906c-9.679688 3.503906-17.429688 10.292969-22.40625 18.789063-12.527344-21.246094-35.59375-35.574219-62-35.574219-39.703125 0-72 32.296875-72 72v32c0 15.800781 11.527344 28.871094 26.601562 31.457031 2.679688 7.855469 7.34375 14.78125 13.398438 20.222657v6.777343zm102.046875 37.457031v9.824219h-64v-16h-16v16h-32v-9.824219c0-9.953125 6.257812-18.984375 15.574219-22.480469l34.425781-12.910156c4.457031 12.335938 16.160156 21.214844 30 21.214844s25.542969-8.878906 29.992188-21.207031l15.335937 5.75c-8.238281 7.464843-13.328125 18.144531-13.328125 29.632812zm-64-94.175781v-32.566406c13.839844-1.273438 27.175781-5.617188 38.96875-13.152344l.0625.0625c6.777344 6.777344 15.59375 11.257812 24.96875 12.914062v32.742188c0 17.648438-14.351562 32-32 32s-32-14.351562-32-32zm256 42.457031-32 12-32-12v-6.777343c6.054688-5.433594 10.71875-12.359376 13.398438-20.222657 7.402343-1.273437 13.867187-5.089843 18.601562-10.511719 4.734375 5.421876 11.199219 9.238282 18.601562 10.511719 2.679688 7.855469 7.34375 14.78125 13.398438 20.222657zm-112 2.742188c5.015625 1.785156 10.382812 2.800781 16 2.800781s10.984375-1.023438 16-2.800781v.136719l-16 21.328124-16-21.328124zm96-47.421875c-4.761719-2.777344-8-7.882813-8-13.777344s3.238281-11 8-13.777344zm-32 0v-27.546875c4.761719 2.777343 8 7.882812 8 13.777343 0 5.894532-3.238281 10.992188-8 13.769532zm-16 2.222656c0 17.648438-14.351562 32-32 32s-32-14.351562-32-32v-32h64zm-80-2.222656c-4.761719-2.777344-8-7.882813-8-13.777344s3.238281-11 8-13.777344zm-32-27.554688c4.761719 2.777344 8 7.882813 8 13.777344s-3.238281 11-8 13.777344zm-2.601562 45.234375c7.402343-1.273437 13.867187-5.089843 18.601562-10.511719 4.734375 5.421876 11.199219 9.238282 18.601562 10.511719 2.679688 7.855469 7.34375 14.78125 13.398438 20.222657v6.777343l-32 12-32-12v-6.777343c6.054688-5.441407 10.71875-12.367188 13.398438-20.222657zm162.601562 88.542969h-32v-16h-16v16h-64v-16h-16v16h-32v-9.824219c0-9.953125 6.257812-18.984375 15.574219-22.480469l37.625-14.09375 26.800781 35.734376 26.800781-35.734376 37.625 14.101563c9.316407 3.488281 15.574219 12.519531 15.574219 22.472656zm128-9.824219v9.824219h-32v-16h-16v16h-64v-9.824219c0-11.496093-5.089844-22.175781-13.335938-29.640625l15.34375-5.75c4.449219 12.335938 16.144532 21.214844 29.992188 21.214844 13.839844 0 25.542969-8.878906 29.992188-21.207031l34.421874 12.910156c9.328126 3.488281 15.585938 12.519531 15.585938 22.472656zm-64-46.175781c0 8.824219-7.175781 16-16 16s-16-7.175781-16-16v-2.800781c5.015625 1.785156 10.382812 2.800781 16 2.800781s10.984375-1.023438 16-2.800781zm-16-16c-17.648438 0-32-14.351562-32-32v-32.566406c13.839844-1.273438 27.175781-5.617188 38.96875-13.152344l.0625.0625c6.777344 6.777344 15.59375 11.257812 24.96875 12.914062v32.742188c0 17.648438-14.351562 32-32 32zm48-34.222656v-27.546875c4.761719 2.777343 8 7.882812 8 13.777343 0 5.894532-3.238281 10.992188-8 13.769532zm-48-101.777344c30.871094 0 56 25.128906 56 56v4.449219c-4.726562-2.753907-10.144531-4.449219-16-4.449219-8.0625 0-15.953125-3.265625-21.65625-8.96875l-9.328125-9.328125-9.488281 6.328125c-11.742188 7.824219-25.414063 11.96875-39.527344 11.96875-5.855469 0-11.273438 1.695312-16 4.449219v-4.449219c0-30.871094 25.128906-56 56-56zm-184 41.296875c0-11.679687 7.449219-22.007813 18.527344-25.710937l10.441406-6.617188c8.800781-5.863281 19.039062-8.96875 29.625-8.96875 29.445312 0 53.40625 23.960938 53.40625 53.40625v7.042969c-4.726562-2.753907-10.144531-4.449219-16-4.449219h-80c-5.855469 0-11.273438 1.695312-16 4.449219zm-72-41.296875c30.871094 0 56 25.128906 56 56v4.449219c-4.726562-2.753907-10.144531-4.449219-16-4.449219-8.0625 0-15.953125-3.265625-21.65625-8.96875l-9.328125-9.328125-9.488281 6.328125c-11.742188 7.824219-25.414063 11.96875-39.527344 11.96875-5.855469 0-11.273438 1.695312-16 4.449219v-4.449219c0-30.871094 25.128906-56 56-56zm-56 88c0-5.894531 3.238281-11 8-13.777344v27.546875c-4.761719-2.769531-8-7.875-8-13.769531zm56 64c5.617188 0 10.984375-1.023438 16-2.800781v2.800781c0 8.824219-7.175781 16-16 16s-16-7.175781-16-16v-2.800781c5.015625 1.777343 10.382812 2.800781 16 2.800781zm0 0" fill="url(#a)"/></svg>