<svg height="496pt" viewBox="0 0 496 496" width="496pt" xmlns="http://www.w3.org/2000/svg" xmlns:xlink="http://www.w3.org/1999/xlink"><linearGradient id="a" gradientUnits="userSpaceOnUse" x1="248" x2="248" y1="496" y2="0"><stop offset="0" stop-color="#9f2fff"/><stop offset="1" stop-color="#0bb1d3"/></linearGradient><path d="m456 0c-8.695312 0-17.105469 2.902344-24 8.152344-6.894531-5.25-15.304688-8.152344-24-8.152344-22.054688 0-40 17.945312-40 40 0 16.382812 9.921875 30.457031 24.046875 36.640625l-28.046875 28.046875-1.527344-1.527344c-9.777344-9.777344-22.769531-15.160156-36.601562-15.160156-16.191406 0-31.671875 7.734375-41.398438 20.703125l-.3125.425781c-6.25-15.289062-19.425781-26.976562-33.464844-32.777344-.136718-14.640624-5.855468-28.535156-16.183593-38.855468-12.265625-12.265625-29.246094-18.023438-46.367188-15.894532-10.59375-13.617187-26.71875-21.601562-44.144531-21.601562s-33.550781 7.984375-44.144531 21.59375c-17.085938-2.097656-34.09375 3.636719-46.359375 15.902344-10.328125 10.320312-16.054688 24.214844-16.183594 38.855468-19.402344 8.007813-37.3125 27.128907-37.3125 51.648438 0 16.519531 9.863281 29.910156 17.703125 37.945312-4.582031 18.949219.824219 38.695313 14.695313 52.550782 5.121093 5.128906 11.097656 9.128906 17.777343 11.894531 8.273438 3.441406 13.824219 12.160156 13.824219 21.722656v51.886719h-40c-13.230469 0-24 10.769531-24 24 0 11.128906 7.65625 20.433594 17.945312 23.128906l31.878907 95.640625c9.816406 29.445313 37.265625 49.230469 68.304687 49.230469h259.75c31.042969 0 58.488282-19.785156 68.296875-49.222656l31.878907-95.640625c10.289062-2.703125 17.945312-12.007813 17.945312-23.136719 0-13.230469-10.769531-24-24-24h-16.40625c-3.226562-42.03125-31.496094-77.089844-69.921875-90.296875l2.550781-2.039063c12.570313-10.054687 19.777344-25.054687 19.777344-41.152343 0-13.871094-5.625-27.457031-15.441406-37.265625l-1.246094-1.246094 28.046875-28.046875c6.183594 14.125 20.257813 24.046875 36.640625 24.046875 22.054688 0 40-17.945312 40-40 0-8.695312-2.902344-17.105469-8.152344-24 5.25-6.894531 8.152344-15.304688 8.152344-24 0-22.054688-17.945312-40-40-40zm-399.695312 215.617188c-4.730469-1.960938-8.960938-4.792969-12.585938-8.425782-10.757812-10.75-14.367188-26.496094-9.421875-41.101562l1.679687-4.96875-3.878906-3.519532c-6.019531-5.441406-16.097656-16.53125-16.097656-29.601562 0-18.960938 16.375-33.929688 31.785156-38.390625l6.40625-1.855469-.679687-6.632812c-1.222657-12.136719 2.894531-23.921875 11.296875-32.3125 9.664062-9.65625 23.464844-13.640625 36.953125-10.664063l5.476562 1.207031 3-4.734374c7.402344-11.65625 20.027344-18.617188 33.761719-18.617188s26.359375 6.960938 33.769531 18.617188l3 4.734374 5.476563-1.207031c13.488281-2.984375 27.296875 1.007813 36.953125 10.664063 8.402343 8.398437 12.511719 20.175781 11.289062 32.3125l-.671875 6.632812 6.40625 1.855469c15.402344 4.460937 31.777344 19.429687 31.777344 38.390625 0 13.070312-10.078125 24.160156-16.097656 29.601562l-3.878906 3.519532 1.679687 4.96875c4.945313 14.597656 1.335937 30.351562-9.429687 41.109375-3.617188 3.625-7.847657 6.457031-12.570313 8.417969-13.335937 5.527343-22.207031 18.253906-23.445313 32.976562-2.714843-.355469-5.457031-.59375-8.257812-.59375-5.535156 0-10.871094.777344-16 2.105469v-41.121094l7.046875-28.191406 53.601563-38.289063-9.296876-13.015625-38.328124 27.375 10.730468-42.925781-15.515625-3.875-24 96-.207031 50.578125c-6.039062 3.503906-11.445312 7.960937-16.03125 13.167969v-165.808594h-16v200h-16v-96l-24.238281-97.9375-15.515625 3.875 10.730468 42.925781-38.328124-27.375-9.296876 13.015625 53.601563 38.289063 7.046875 28.191406v95.015625h-24v-51.886719c0-16.210937-9.304688-30.527343-23.695312-36.496093zm143.695312 48.382812c23.734375 0 43.449219 17.335938 47.28125 40h-94.5625c3.832031-22.664062 23.546875-40 47.28125-40zm-132.335938 184h12.335938v16.902344c-5.078125-4.734375-9.265625-10.4375-12.335938-16.902344zm316.335938 0h16v27.28125c-5.039062 2.167969-10.390625 3.613281-16 4.230469zm-16 32h-16v-32h16zm-32 0h-16v-32h16zm-32 0h-16v-32h16zm-32 0h-16v-32h16zm-32 0h-16v-32h16zm-32 0h-16v-32h16zm-32 0h-16v-32h16zm-32 0h-16v-32h16zm-32-.488281c-5.609375-.617188-10.960938-2.054688-16-4.230469v-27.28125h16zm304-14.609375v-16.902344h12.335938c-3.070313 6.464844-7.257813 12.167969-12.335938 16.902344zm18.238281-32.902344h-372.476562l-26.664063-80h425.804688zm45.761719-104c0 4.414062-3.585938 8-8 8h-448c-4.414062 0-8-3.585938-8-8s3.585938-8 8-8h448c4.414062 0 8 3.585938 8 8zm-215.59375-24c1.234375-13.632812 5.632812-26.328125 12.394531-37.457031l35.167969 14.082031 39.992188-16 40.023437 16 35.222656-14.082031c6.761719 11.136719 11.160157 23.832031 12.394531 37.464843h-175.195312zm152.921875-50.753906-25.351563 10.136718-40.023437-16-39.992187 16-25.296876-10.125c16.128907-17.914062 39.398438-29.257812 65.335938-29.257812s49.207031 11.34375 65.328125 29.246094zm-39.105469-54.078125-4.300781 3.441406-40.273437-40.273437-11.3125 11.3125 34.59375 34.589843c-1.640626-.070312-3.265626-.238281-4.929688-.238281-6.457031 0-12.753906.671875-18.886719 1.800781l-15.457031-15.457031-11.3125 11.3125 9.105469 9.105469c-5.976563 2.253906-11.679688 5.03125-17.074219 8.300781l-12.71875-12.71875-11.3125 11.3125 10.800781 10.800781c-14.121093 11.886719-24.96875 27.480469-31.207031 45.238281-7.113281-11.144531-17.554688-19.941406-29.9375-24.976562v-.597656c0-9.554688 5.550781-18.28125 13.832031-21.714844 6.671875-2.773438 12.648438-6.773438 17.761719-11.886719 13.871094-13.855469 19.285156-33.609375 14.703125-52.558593 7.359375-7.546876 16.398437-19.847657 17.488281-35l9.488282-12.640626c6.71875-8.960937 17.414062-14.304687 28.597656-14.304687 9.554687 0 18.527344 3.71875 25.28125 10.472656l30.09375 30.097657c6.832031 6.8125 10.753906 16.261718 10.753906 25.925781 0 11.214843-5.023438 21.65625-13.777344 28.65625zm93.472656-129.144531c5.351563 4.679687 8.304688 11.066406 8.304688 17.976562 0 13.230469-10.769531 24-24 24-12.207031 0-22.199219-9.191406-23.695312-20.992188l2.039062-2.039062c5.703125-5.703125 13.59375-8.96875 21.65625-8.96875v-16c-12.273438 0-24.289062 4.976562-32.96875 13.65625l-43.03125 43.03125-4.6875-4.6875 43.03125-43.03125c8.679688-8.679688 13.65625-20.695312 13.65625-32.96875h-16c0 8.0625-3.265625 15.953125-8.96875 21.65625l-2.039062 2.039062c-11.800782-1.496093-20.992188-11.488281-20.992188-23.695312 0-13.230469 10.769531-24 24-24 6.910156 0 13.296875 2.953125 17.976562 8.304688l6.023438 6.886718 6.023438-6.886718c4.679687-5.351563 11.066406-8.304688 17.976562-8.304688 13.230469 0 24 10.769531 24 24 0 6.910156-2.953125 13.296875-8.304688 17.976562l-6.886718 6.023438zm-255.695312 297.976562h64v16h-64zm0 32h64v16h-64zm-64-32h16v48h-16zm32 0h16v48h-16zm240 0v16h-64v-16zm-64 32h64v16h-64zm-64-32h16v48h-16zm32 0h16v48h-16zm-256 0h64v16h-64zm0 32h64v16h-64zm0 0" fill="url(#a)"/></svg>